<svg id="ic_home" xmlns="http://www.w3.org/2000/svg" width="16" height="16" viewBox="0 0 16 16">
  <rect id="bg" width="16" height="16" fill="rgba(255,96,96,0)"/>
  <path id="패스_15314" data-name="패스 15314" d="M-13184.759,11297.072l-5.41,5.691a5.4,5.4,0,0,0-.454.626,3.237,3.237,0,0,0-.142,1.024v4.453h4.143v-2.659a.973.973,0,0,1,.134-.514.626.626,0,0,1,.416-.188h2.6a.731.731,0,0,1,.438.188.858.858,0,0,1,.146.479v2.694h4.137v-4.518a2.492,2.492,0,0,0-.155-.96,4.685,4.685,0,0,0-.459-.646Z" transform="translate(13192.873 -11295.176)" fill="none" stroke="#78849e" stroke-linecap="round" stroke-linejoin="round" stroke-width="1"/>
</svg>
