<svg width="171" height="126" viewBox="0 0 171 126" fill="none" xmlns="http://www.w3.org/2000/svg">
<path d="M18.6378 107.742C30.5235 107.742 35.0174 89.6264 35.8154 85.9612L25.5677 83.7284L30.6915 84.8238L25.5677 83.6863C25.5677 83.7284 24.6437 87.8149 22.8797 91.6486C22.4597 92.5755 22.0397 93.3759 21.6617 94.0078C20.7378 95.5666 18.4278 95.3138 17.8398 93.6287C16.9578 91.0588 14.7319 87.4779 13.7659 80.6951C12.5479 72.5221 11.9599 65.0232 11.9599 64.9389L2.80414 64.8547C2.84614 65.2338 3.35013 74.6286 4.94609 84.234C6.83605 95.6509 9.90199 107.363 18.3018 107.658C18.3858 107.742 18.5118 107.742 18.6378 107.742Z" fill="#FCCBC6"/>
<path d="M11.6661 68.4777C11.6661 68.4777 14.48 66.624 15.362 63.2116C16.244 59.7992 16.118 60.052 17.63 56.9766C19.1419 53.9012 19.0159 53.2692 17.42 53.0586C17.042 53.0165 15.74 55.0808 15.152 56.0076C13.976 57.8613 13.0941 60.1783 12.4221 58.1983C11.7501 56.2182 14.48 48.5508 12.8421 48.0031C11.2041 47.4555 11.2041 48.8457 10.8681 50.573C10.5321 52.3424 10.0281 54.7859 10.0281 54.7859C10.0281 54.7859 9.77613 47.0342 9.18814 46.2337C8.34816 45.0963 7.17219 46.7814 7.17219 48.4244C7.17219 50.0675 7.50817 54.8701 7.50817 54.8701C7.50817 54.8701 5.66021 48.6351 5.32421 48.0031C4.56823 46.6129 3.26626 47.5819 3.47625 48.7615C3.68625 49.9832 4.82023 55.4178 4.82023 55.4178C4.82023 55.4178 3.35026 51.9632 1.88029 51.4998C0.53632 51.0785 0.914305 52.3845 1.54429 54.8701C2.21628 57.3979 3.22426 68.8147 3.22426 68.8147L11.6661 68.4777Z" fill="#FCCBC6"/>
<path d="M12.8838 58.9144C12.8838 58.9144 8.64188 59.7149 8.0539 64.1806" stroke="#F2A29B" stroke-width="2.0806" stroke-miterlimit="10" stroke-linecap="round"/>
<path d="M3.98025 77.9568C4.23224 79.979 4.52623 82.1697 4.90422 84.3182C6.79417 95.7352 9.86011 107.447 18.2599 107.742C18.3859 107.742 18.5119 107.742 18.6379 107.742C29.1377 107.742 33.8835 93.5445 35.3955 87.7728L24.8958 86.214C24.4338 87.7307 23.7618 89.7529 22.8798 91.7329C22.4598 92.6598 22.0398 93.4602 21.6618 94.0921C21.6618 94.0921 21.6618 94.0921 21.6198 94.1343C22.1658 95.4403 22.7958 96.8726 23.2578 97.5467C24.2238 98.9369 18.5119 101.76 14.018 98.8106C9.52411 95.8615 6.75219 77.9989 6.75219 77.9989H3.98025V77.9568Z" fill="url(#paint0_linear)"/>
<path d="M65.3407 81.9169C66.3067 81.9169 67.2727 81.8747 68.2387 81.7483C78.2764 80.6108 103.77 70.4578 108.768 68.4356C113.052 66.7083 115.152 61.7793 113.43 57.4821C111.708 53.185 111.624 48.4665 107.34 50.1938C96.588 54.5331 72.3966 64.3491 66.3907 65.0232C61.3928 65.5708 53.665 62.0741 50.6831 60.3047C46.6932 57.9034 41.5273 59.2094 39.1753 63.2116C36.7814 67.2139 38.0833 72.3957 42.0733 74.7549C43.3752 75.5554 54.337 81.9169 65.3407 81.9169Z" fill="#00D1FF"/>
<path d="M60.4687 81.5376C62.0646 81.7904 63.7026 81.9168 65.3406 81.9168C66.3065 81.9168 67.2725 81.8747 68.2385 81.7483C75.5463 80.9478 90.96 75.3447 100.788 71.5952L111.708 52.3845C110.91 50.3623 109.86 49.1827 107.34 50.1938C104.106 51.4998 99.6538 53.3113 94.8659 55.2071C91.716 60.3469 83.9041 71.0476 68.9105 74.2494C60.2167 76.103 59.0827 78.9678 60.4687 81.5376Z" fill="url(#paint1_linear)"/>
<path d="M37.9996 61.9899C37.9996 61.9899 25.6099 69.0254 21.662 90.5954C21.662 90.5954 30.5658 96.2827 36.9077 92.7018C36.9497 92.7439 42.3675 71.9744 37.9996 61.9899Z" fill="#5B40FF"/>
<path d="M95.1181 63.4223C102.468 46.992 117.84 47.4976 118.806 47.7082C119.772 47.4976 135.143 46.9499 142.493 63.4223C150.095 80.1895 148.415 127.332 148.457 127.627C129.557 135.589 108.096 135.589 89.1963 127.627C89.1963 127.332 87.5163 80.1895 95.1181 63.4223Z" fill="#0050A3"/>
<path d="M31.4475 73.154C38.2094 56.3025 52.4471 57.3136 53.329 57.3979C54.211 57.3136 68.4487 56.3025 75.2105 73.154C82.2243 90.5533 80.6704 157.875 80.6704 157.875H25.9877C26.0297 157.875 24.4757 90.5954 31.4475 73.154Z" fill="#FCB39A"/>
<path d="M43.7116 157.875H80.7128C80.7128 157.875 82.0988 98.8527 76.5129 77.0721L65.6771 70.5421C65.6771 70.5421 59.7973 90.5112 61.0992 104.793C64.0392 136.389 50.7675 134.03 48.0795 141.108C45.3076 148.396 44.2156 152.988 43.7116 157.875Z" fill="url(#paint2_linear)"/>
<path d="M62.0651 58.9144C62.0651 58.9144 65.761 63.5907 63.1151 67.593C60.4691 71.5952 55.6392 67.7193 54.3793 65.318C54.3793 65.318 51.9013 69.1096 48.1214 68.6041C44.3835 68.0985 46.8194 60.4732 46.8194 60.4732L62.0651 58.9144Z" fill="url(#paint3_linear)"/>
<path d="M61.4352 58.0718C61.4352 58.0718 63.6612 63.1273 61.0992 65.9078C58.5373 68.6884 53.9174 66.7925 53.5394 64.9389L61.4352 58.0718Z" fill="white"/>
<path d="M46.5677 57.777L53.5396 64.9811C53.5396 64.9811 49.6756 67.6773 47.4077 65.7815C45.1397 63.8857 46.5677 57.777 46.5677 57.777Z" fill="white"/>
<path d="M78.7724 47.9167L78.7734 47.914C79.332 46.4032 79.3101 45.3669 79.0511 44.5583C78.7846 43.7266 78.2523 43.0749 77.6393 42.3344L77.6181 42.3088C77.0276 41.5955 76.3672 40.7978 76.0158 39.7441C75.6534 38.6571 75.6333 37.3515 76.206 35.6281C77.2226 32.569 76.0653 30.3222 74.6172 28.8C73.8885 28.0339 73.0906 27.4592 72.4716 27.0753C72.1631 26.8839 71.9013 26.7414 71.7183 26.6474C71.6292 26.6017 71.559 26.5675 71.5113 26.5449C71.4605 26.5408 71.3877 26.5348 71.2941 26.5275C71.0946 26.5118 70.8009 26.4896 70.4249 26.4635C69.6729 26.4114 68.5922 26.3436 67.2793 26.2816C64.6526 26.1575 61.1007 26.0566 57.3943 26.1484C53.6843 26.2402 49.8371 26.5248 46.6136 27.1665C45.0019 27.4873 43.5603 27.8946 42.3757 28.4043C41.1863 28.916 40.2903 29.5163 39.7311 30.2034L39.729 30.2059C38.495 31.7016 37.7983 32.9402 37.4409 34.0306C37.0859 35.1134 37.0571 36.0754 37.1974 37.0353C37.3258 37.9146 37.5933 38.7826 37.8947 39.7605C37.9282 39.8693 37.9622 39.9794 37.9964 40.0911C38.3345 41.1945 38.6891 42.4184 38.8733 43.853C39.0684 45.3732 38.623 46.8006 38.1562 48.0845C38.0835 48.2845 38.0107 48.4802 37.9393 48.6721C37.5372 49.7534 37.1797 50.7146 37.1284 51.6535C37.0718 52.6883 37.3936 53.7081 38.657 54.7659C39.9542 55.852 42.2339 56.9661 46.0784 58.0978C53.6799 60.3356 61.3136 59.3225 67.3368 56.9588C70.3474 55.7773 72.9438 54.2628 74.9229 52.6614C76.9111 51.0525 78.2386 49.3869 78.7724 47.9167Z" fill="#D9D9D9" stroke="#CCCCCC"/>
<path d="M74 43C75.1667 44.8333 76.8 49.2 74 52" stroke="#AFAFAF"/>
<path d="M60.2166 48.0873L61.2666 59.0408C60.6366 62.8324 57.1087 65.4023 53.5388 64.981C50.2209 64.5597 47.5749 61.6949 47.4069 58.1982C47.6589 53.564 47.8689 51.9632 48.1209 47.329L60.2166 48.0873Z" fill="#FCCBC6"/>
<path d="M48.0795 52.8058C48.0795 52.8058 51.9014 56.9344 61.0991 57.3979L60.3851 50.6572L48.0795 52.8058Z" fill="#F2A29B"/>
<path d="M63.745 34.7747C63.745 34.7747 67.8609 30.1405 71.4308 32.1627C74.9587 34.1849 74.7907 39.9565 72.2288 41.8945C69.6669 43.8324 63.997 41.8523 63.997 41.8523L63.745 34.7747Z" fill="#FCCBC6"/>
<path d="M43.9213 34.227C43.9213 34.227 37.9154 32.6682 36.0674 36.2913C34.2194 39.9144 37.5794 44.6749 40.7713 44.8856C43.9633 45.0962 47.6172 40.2935 47.6172 40.2935L43.9213 34.227Z" fill="#F2A29B"/>
<path d="M45.0133 20.2824C42.0733 21.9254 40.0154 26.8123 40.0994 30.1405C40.1834 35.8279 40.6454 44.5064 42.4513 47.5397C45.2653 52.216 48.9192 53.6905 52.8251 53.7326C57.949 53.7748 64.2488 49.6461 66.3488 44.2958C68.4067 38.9454 66.5167 22.4309 66.5167 22.4309C66.5167 22.4309 61.0569 17.6282 57.025 17.5861C50.5571 17.5861 47.5332 18.8921 45.0133 20.2824Z" fill="#FCCBC6"/>
<path d="M58.1169 40.6306C57.5709 42.6528 59.9649 43.8745 61.2249 42.1473C61.2668 42.063 61.3089 42.0209 61.3509 41.9366C61.9388 39.8723 59.5029 38.6927 58.2429 40.42C58.2009 40.4621 58.1589 40.5464 58.1169 40.6306Z" fill="#FCB39A"/>
<path d="M43.0813 40.3357C42.5353 42.4 44.9292 43.5797 46.1892 41.8524C46.2312 41.7681 46.2732 41.726 46.3152 41.6417C46.9032 39.5774 44.4672 38.3978 43.2073 40.1251C43.1233 40.1672 43.0813 40.2515 43.0813 40.3357Z" fill="#FCB39A"/>
<path d="M68.1549 39.156C68.3229 38.7769 68.9109 38.6084 68.9949 38.145C69.0369 37.8079 68.6169 37.4709 68.5329 37.1339C68.3649 36.6705 68.3649 36.207 68.5329 35.7436C69.0789 34.0585 71.3048 34.3955 72.1028 35.6172C72.4808 36.207 71.5568 36.7547 71.1788 36.1649C70.8849 35.7436 70.4229 35.533 69.9189 35.7015C69.2049 35.9121 69.5829 36.839 69.8349 37.2603C70.1289 37.6815 70.1289 38.1871 70.0029 38.6505C69.8769 39.0297 69.0789 39.4931 69.1629 39.8301C69.4149 40.5042 68.3649 40.7991 68.1129 40.125C67.9869 39.788 67.9869 39.4931 68.1549 39.156Z" fill="#F2A29B"/>
<path d="M56.9831 34.4797C56.9831 35.4487 57.3191 36.207 57.7391 36.207C58.1591 36.207 58.4951 35.4066 58.4951 34.4797C58.4951 33.5108 58.1591 32.7524 57.7391 32.7524C57.3611 32.7524 56.9831 33.5108 56.9831 34.4797Z" fill="#513329"/>
<path d="M45.1394 33.9321C45.1394 34.9011 45.4754 35.6594 45.8954 35.6594C46.3154 35.6594 46.6514 34.859 46.6514 33.9321C46.6514 32.9632 46.3154 32.2048 45.8954 32.2048C45.5174 32.2048 45.1394 32.9632 45.1394 33.9321Z" fill="#513329"/>
<path d="M60.1333 30.9831C60.1333 30.9831 57.3194 30.3511 55.5554 31.278C55.5134 31.278 57.2354 28.2868 60.1333 30.9831Z" fill="#66463D"/>
<path d="M43.6274 30.9831C43.6274 30.9831 46.4414 30.3511 48.2053 31.278C48.2473 31.278 46.4834 28.2868 43.6274 30.9831Z" fill="#66463D"/>
<path d="M51.6919 35.9121C51.6919 35.9121 49.5499 34.6061 48.08 36.2492C46.4 38.145 47.87 40.5464 51.0619 39.5774" stroke="#F2A29B" stroke-width="1.8441" stroke-miterlimit="10" stroke-linecap="round" stroke-linejoin="round"/>
<path d="M42.6616 35.4909C42.6616 35.4909 42.0736 35.4066 41.4436 36.0807" stroke="#F2A29B" stroke-width="0.9221" stroke-miterlimit="10" stroke-linecap="round" stroke-linejoin="round"/>
<path d="M43.5439 36.2491C43.5439 36.2491 42.368 36.8389 41.864 37.9343" stroke="#F2A29B" stroke-width="0.9221" stroke-miterlimit="10" stroke-linecap="round" stroke-linejoin="round"/>
<path d="M60.7634 36.2491C60.7634 36.2491 62.2333 36.5862 62.7373 37.5973" stroke="#F2A29B" stroke-width="0.9221" stroke-miterlimit="10" stroke-linecap="round" stroke-linejoin="round"/>
<path d="M60.7634 34.9432C60.7634 34.9432 62.2333 34.9011 62.7373 35.7015" stroke="#F2A29B" stroke-width="0.9221" stroke-miterlimit="10" stroke-linecap="round" stroke-linejoin="round"/>
<path d="M56.2278 42.2736C56.2278 42.2736 57.1938 42.8634 57.0258 44.2537" stroke="#F2A29B" stroke-width="0.9221" stroke-miterlimit="10" stroke-linecap="round" stroke-linejoin="round"/>
<path d="M51.6919 43.9167C51.6919 43.9167 52.9098 45.012 55.0098 43.5797" stroke="#513329" stroke-width="1.8441" stroke-miterlimit="10" stroke-linecap="round" stroke-linejoin="round"/>
<path d="M63.2301 22.9809L63.2325 22.9955L63.2341 23.0103C63.56 26.0962 64.648 28.3027 65.6459 29.7333C66.1454 30.4495 66.6231 30.9722 66.9723 31.3132C67.1297 31.4668 67.2608 31.5833 67.3559 31.664C67.4816 31.6323 67.658 31.5835 67.8729 31.5127C68.3385 31.3593 68.9818 31.1038 69.6841 30.6977C71.0868 29.8865 72.7167 28.4801 73.6528 26.0828C74.1 24.9375 74.0199 24.0042 73.6802 23.2344C73.3329 22.4476 72.6948 21.7895 71.9607 21.2553C71.2293 20.7232 70.4322 20.3354 69.8116 20.0798C69.5027 19.9525 69.2409 19.8594 69.0577 19.7985C68.9661 19.768 68.8943 19.7457 68.8463 19.7312C68.8223 19.724 68.8043 19.7187 68.7927 19.7153L68.7802 19.7118L68.7778 19.7111L68.7777 19.7111L68.7775 19.711L68.7774 19.711L68.354 19.5943L68.4156 19.159C68.6638 17.4068 68.341 16.091 67.7489 15.0921C67.1521 14.0855 66.2583 13.3619 65.3063 12.8433C64.354 12.3245 63.363 12.0217 62.6042 11.849C62.2262 11.763 61.9095 11.7101 61.6888 11.6788C61.5785 11.6632 61.4925 11.653 61.4351 11.6468C61.4065 11.6437 61.385 11.6416 61.3712 11.6403L61.3564 11.639L61.3536 11.6388L61.3535 11.6388L61.3533 11.6388L61.3532 11.6388L61.0173 11.6123L60.9159 11.2905C60.437 9.76907 59.6921 8.72874 58.8271 8.08741L58.8254 8.08613C56.5402 6.37665 52.982 6.25875 49.7569 8.11888L49.6155 8.20045L49.4532 8.18285C44.9776 7.6975 40.5808 9.76049 38.0798 13.5235C35.6597 17.1649 35.3765 21.9024 37.354 25.8291L37.4836 26.0864L37.3262 26.3272L37.3261 26.3272L37.3261 26.3273L37.3259 26.3276L37.3251 26.3287L37.3198 26.3371C37.3167 26.342 37.3125 26.3486 37.3073 26.3569C37.3041 26.3621 37.3004 26.368 37.2964 26.3745C37.2755 26.4083 37.2446 26.4594 37.2065 26.5254C37.1303 26.6576 37.0262 26.8484 36.9167 27.0788C36.6951 27.5455 36.4641 28.1491 36.3846 28.7476C36.3049 29.3473 36.3842 29.877 36.6984 30.2775C37.0108 30.6757 37.6372 31.0499 38.883 31.159C41.4025 31.3797 44.3742 30.473 46.7627 29.4738C47.9474 28.9782 48.97 28.468 49.6962 28.0817C50.0591 27.8887 50.3473 27.7269 50.5441 27.6139C50.6425 27.5574 50.718 27.5131 50.7684 27.4831L50.8251 27.4493L50.8388 27.441L50.842 27.4391L50.8426 27.4387L50.8427 27.4387L50.843 27.4392L51.4834 28.1883C51.4843 28.189 51.4843 28.189 51.4843 28.189L51.4842 28.1892L51.4836 28.1899L51.479 28.1953L51.4591 28.2196C51.4412 28.2415 51.4148 28.2743 51.3824 28.316C51.3173 28.3999 51.229 28.5182 51.1367 28.6554C50.942 28.9448 50.7685 29.2618 50.7141 29.5028C50.6955 29.585 50.6976 29.6296 50.7001 29.6478C50.7077 29.6519 50.7206 29.6576 50.741 29.664C50.83 29.6924 51.0111 29.715 51.336 29.6754C51.6546 29.6366 52.0787 29.542 52.6337 29.3684C54.8249 28.6828 57.2397 26.9783 59.1461 25.4338C60.0921 24.6674 60.8985 23.9525 61.4758 23.4405L61.4879 23.4298C61.7682 23.1812 62.0011 22.9746 62.1655 22.8382C62.2455 22.7718 62.3271 22.7069 62.3967 22.6618C62.4218 22.6456 62.4924 22.6 62.5819 22.5747C62.6194 22.5641 62.7465 22.5308 62.8965 22.5834C63.103 22.6558 63.2053 22.8319 63.2301 22.9809ZM62.9401 23.5013C62.9396 23.5017 62.939 23.5021 62.9384 23.5025C62.9455 23.4984 62.9465 23.4972 62.9401 23.5013ZM50.6903 29.6412C50.69 29.6412 50.6909 29.6422 50.6937 29.644C50.6919 29.6421 50.6906 29.6412 50.6903 29.6412Z" fill="#D9D9D9" stroke="#CCCCCC"/>
<path d="M39.2959 20.3876C39.3174 18.2146 40.329 13.6635 44.2028 12.8429" stroke="#AFAFAF"/>
<path d="M82.3927 152.104C85.2066 114.609 81.3847 88.2783 81.2167 87.183L70.843 88.7417C70.885 89.1209 74.6649 115.157 71.935 151.303L82.3927 152.104ZM70.843 88.7417L76.0509 87.9413L70.843 88.7417Z" fill="#FCCBC6"/>
<path d="M36.614 62.3691C36.614 62.3691 34.6401 63.2117 34.3041 64.2649C33.9681 65.276 34.7661 67.0875 35.1441 67.9722C35.5221 68.8569 36.866 69.1519 37.538 69.0676C38.21 68.9833 37.244 67.0875 36.95 66.4556C36.656 65.8658 36.614 64.0543 36.614 64.0543L38.042 62.8747C38.042 62.8747 37.034 62.1585 36.614 62.3691Z" fill="#FCCBC6"/>
<path d="M34.6405 64.6862C34.6405 64.6862 32.9185 65.4445 32.6245 66.3292C32.3305 67.2139 33.0445 68.7727 33.3805 69.531C33.7165 70.2893 34.8925 70.5842 35.4804 70.4578C36.0684 70.3736 35.2284 68.7306 34.9344 68.1829C34.6824 67.6352 34.6405 66.0764 34.6405 66.0764L35.8584 65.0654C35.9004 65.1496 35.0184 64.5177 34.6405 64.6862Z" fill="#FCCBC6"/>
<path d="M38.84 60.0519C38.84 60.0519 36.4881 61.1052 36.0681 62.3269C35.6481 63.5486 36.6141 65.7393 37.0761 66.7504C37.538 67.8036 39.176 68.1828 39.974 68.0564C40.772 67.93 39.596 65.6551 39.26 64.9389C38.882 64.2227 38.84 62.032 38.84 62.032L40.562 60.6418C40.562 60.6418 39.344 59.7992 38.84 60.0519Z" fill="#FCCBC6"/>
<path d="M41.78 58.7039C41.78 58.7039 39.302 59.3779 38.714 60.5575C38.126 61.7372 38.798 64.0121 39.092 65.1074C39.428 66.2028 40.94 66.8347 41.78 66.7926C42.62 66.7926 41.738 64.3913 41.486 63.5908C41.234 62.8325 41.486 60.6418 41.486 60.6418L43.376 59.5043C43.376 59.5043 42.284 58.5354 41.78 58.7039Z" fill="#FCCBC6"/>
<path d="M90.036 89.4158C90.204 89.2894 90.33 89.163 90.498 89.0366C91.674 88.0255 92.01 87.8149 92.472 87.8991H92.514C92.9339 87.9834 93.1859 88.3204 93.8579 89.7107C94.6559 91.3958 95.8739 93.9235 99.1078 94.4291H99.1498C102.426 94.8925 104.316 92.8282 105.534 91.4379C106.584 90.3005 106.92 90.0477 107.34 90.0898H107.382C107.802 90.132 108.096 90.4269 108.894 91.7328C109.86 93.2916 111.372 95.6508 114.647 95.7772H114.689H114.857C118.049 95.7772 119.645 93.5444 120.695 92.0699C121.577 90.806 121.871 90.5111 122.333 90.5111H122.375C122.795 90.469 123.131 90.7639 124.097 91.9435C125.273 93.3759 126.995 95.5666 130.313 95.3138H130.355C133.631 94.9768 134.975 92.5333 135.857 90.9324C136.613 89.5422 136.865 89.2473 137.285 89.2051H137.327C137.747 89.1209 138.083 89.3736 139.217 90.4269C140.561 91.7328 142.535 93.6708 145.769 92.9967H145.811C146.567 92.8282 147.239 92.5333 147.785 92.1963C147.575 89.4579 147.365 86.7195 147.071 84.0654C146.651 84.7395 146.357 85.4557 146.147 86.0876C145.517 87.6042 145.307 87.9413 144.761 88.0676C144.215 88.1519 143.921 87.9413 142.703 86.8038C141.443 85.582 139.553 83.7284 136.529 84.1918C133.505 84.6131 132.245 86.9302 131.405 88.4889C130.607 89.9213 130.355 90.2162 129.851 90.3005C129.347 90.3426 129.011 90.0898 128.003 88.826C126.911 87.4357 125.231 85.3714 122.207 85.4978C119.183 85.5821 117.629 87.7306 116.621 89.163C115.655 90.5111 115.361 90.7639 114.857 90.7639C114.311 90.7218 114.059 90.469 113.177 89.0787C112.254 87.6042 110.826 85.3293 107.802 85.0765C104.778 84.7816 102.972 86.7617 101.796 88.0676C100.704 89.2894 100.368 89.5 99.8218 89.4579C99.3178 89.3736 99.0658 89.0366 98.3518 87.5621C97.5958 85.9612 96.4619 83.5599 93.4799 82.9701C92.43 82.7594 91.464 82.8016 90.624 83.0543C90.414 85.1608 90.204 87.3093 90.036 89.4158Z" fill="#FCCB68"/>
<path d="M115.698 138.58C126.912 139.044 138.209 136.937 148.667 132.219C149.885 131.671 150.851 130.154 150.851 128.848C150.851 127.879 150.305 127.332 149.507 127.332C149.255 127.332 148.961 127.374 148.667 127.5C148.583 127.542 148.541 127.542 148.457 127.585C148.415 127.29 150.095 80.7372 142.661 63.6751L129.684 61.4844C129.684 61.4844 123.384 75.6397 128.004 88.826C132.623 102.012 120.528 109.385 109.482 110.649C98.4363 111.913 94.0264 111.702 94.0264 111.702C94.0264 111.702 106.878 121.012 116.79 121.602C124.014 122.024 127.164 119.075 127.164 119.075C127.164 119.075 123.804 128.216 117.168 133.525C115.488 134.873 113.598 135.758 111.54 135.842C107.298 136.137 110.448 137.316 115.698 138.58Z" fill="url(#paint4_linear)"/>
<path d="M148.667 113.893C148.667 113.724 148.667 113.64 148.667 113.556L148.457 109.174C148.751 108.964 148.961 108.795 149.339 108.5C152.153 106.352 155.597 106.646 155.597 106.646L162.611 111.702C162.611 111.702 156.269 121.434 155.219 123.877C154.169 126.279 153.623 127.585 152.825 126.363C151.943 125.015 152.909 121.349 152.909 121.349C152.909 121.349 150.347 126.405 149.801 127.5C149.213 128.596 147.575 128.554 147.827 126.953C147.953 126.236 150.389 120.086 150.389 120.086C150.389 120.086 147.659 124.13 146.609 125.436C145.601 126.742 143.585 127.374 143.627 125.942C143.669 124.93 148.289 118.611 148.289 118.611C148.289 118.611 146.315 120.254 144.971 121.434C143.627 122.613 142.745 123.709 141.779 122.234C140.813 120.76 147.785 116.378 148.457 114.398C148.625 114.188 148.667 114.061 148.667 113.893Z" fill="#FCCBC6"/>
<path d="M127.122 57.9456C127.836 53.7327 131.027 50.8258 134.933 53.3536C135.185 53.5221 145.223 59.7571 151.775 64.602C165.425 74.6286 167.819 78.336 168.953 80.9901C171.136 86.1298 170.339 93.1232 166.391 103.571C163.997 109.933 161.225 115.325 161.099 115.578C161.099 115.578 161.099 115.578 161.099 115.62C160.175 115.788 156.017 116.378 151.985 113.724C148.289 111.281 147.071 107.658 146.777 106.689C148.373 103.698 149.927 99.948 151.439 95.6509C152.615 92.2385 153.371 89.2894 153.371 87.6886C150.431 84.3182 144.047 79.2628 134.513 73.0277C130.607 70.3736 126.366 62.5376 127.122 57.9456Z" fill="#00D1FF"/>
<path d="M131.909 70.5421C132.749 71.5532 133.631 72.3958 134.513 72.9435C144.047 79.2207 150.43 84.2762 153.37 87.6043C153.37 87.6043 156.184 81.8327 153.664 77.9568C151.144 74.0809 131.909 70.5421 131.909 70.5421Z" fill="url(#paint5_linear)"/>
<path d="M89.07 122.487C89.112 122.108 91.0859 103.276 94.0258 86.3404C98.3097 61.5687 109.481 50.6573 109.481 50.6573C111.707 52.9744 115.361 54.7438 115.361 54.7438L114.605 47.8768C109.271 48.6772 100.242 51.9211 95.1178 63.3802C89.028 76.8614 88.902 109.764 89.07 122.487Z" fill="url(#paint6_linear)"/>
<path d="M125.82 37.6394L126.996 49.5198C126.282 53.6063 122.502 56.4289 118.596 55.9655C114.984 55.5442 112.128 52.4267 111.96 48.593C112.212 43.5796 112.464 41.8523 112.716 36.839L125.82 37.6394Z" fill="#FCCBC6"/>
<path d="M112.674 42.737C112.674 42.737 116.832 47.2027 126.786 47.7082L126.03 40.4199L112.674 42.737Z" fill="#F2A29B"/>
<path d="M131.952 9.20246C131.784 8.86543 128.928 2.54609 121.284 3.00951C113.64 3.51506 108.978 5.24235 108.558 9.20246C108.138 13.1626 131.952 9.20246 131.952 9.20246Z" fill="#E5E5E5"/>
<path d="M105.931 8.40112L105.931 8.40114L105.927 8.4033C104.885 9.06254 104.136 10.1618 103.663 11.5159C103.191 12.8688 103.006 14.4441 103.073 15.9955C103.139 17.5471 103.454 19.0488 103.959 20.2521C104.471 21.4707 105.144 22.3084 105.873 22.6528L105.875 22.6538C106.101 22.7617 106.353 22.7466 106.702 22.4929C107.069 22.2261 107.473 21.7365 107.896 21.0414C108.736 19.6604 109.552 17.6391 110.268 15.5295C110.982 13.428 111.588 11.2708 112.015 9.63677C112.229 8.82031 112.398 8.13572 112.513 7.65562C112.537 7.55566 112.559 7.46457 112.578 7.38302C112.521 7.37131 112.458 7.35919 112.392 7.34695C111.973 7.27039 111.379 7.18974 110.684 7.17463C109.287 7.1443 107.518 7.37861 105.931 8.40112Z" fill="#D9D9D9" stroke="#CCCCCC"/>
<path d="M129.684 23.1892C129.684 23.1892 134.178 18.1759 137.999 20.3245C141.821 22.5152 141.653 28.7924 138.881 30.8988C136.109 33.0053 129.936 30.8567 129.936 30.8567L129.684 23.1892Z" fill="#FCCBC6"/>
<path d="M108.18 22.5994C108.18 22.5994 101.67 20.9143 99.6543 24.8323C97.6803 28.7924 101.292 33.89 104.736 34.1427C108.222 34.3534 112.128 29.1294 112.128 29.1294L108.18 22.5994Z" fill="#F2A29B"/>
<path d="M109.356 7.4752C106.164 9.24461 103.938 14.5528 104.022 18.1759C104.106 24.3267 104.61 33.7636 106.584 37.0497C109.608 42.1051 113.598 43.7482 117.84 43.7903C123.384 43.8324 130.23 39.3668 132.498 33.553C134.765 27.7392 132.708 9.83441 132.708 9.83441C132.708 9.83441 126.786 4.61043 122.418 4.61043C115.362 4.5683 112.044 5.95856 109.356 7.4752Z" fill="#FCCBC6"/>
<path d="M123.593 29.5086C122.963 31.7414 125.567 33.0052 126.953 31.1516C126.995 31.0673 127.037 30.9831 127.079 30.8988C127.709 28.666 125.063 27.36 123.719 29.2558C123.635 29.3401 123.593 29.4243 123.593 29.5086Z" fill="#FCB39A"/>
<path d="M107.256 29.2137C106.626 31.4465 109.272 32.7104 110.616 30.8567C110.658 30.7724 110.7 30.6882 110.742 30.6039C111.372 28.3711 108.726 27.0651 107.382 28.9609C107.298 29.0451 107.256 29.1294 107.256 29.2137Z" fill="#FCB39A"/>
<path d="M134.43 27.9498C134.64 27.5285 135.27 27.36 135.312 26.8545C135.354 26.4753 134.934 26.0961 134.808 25.7591C134.64 25.2536 134.64 24.748 134.808 24.2425C135.396 22.4309 137.79 22.8101 138.672 24.1161C139.092 24.748 138.084 25.3378 137.664 24.7059C137.37 24.2425 136.866 24.0318 136.32 24.2003C135.522 24.4531 135.942 25.4221 136.236 25.8855C136.53 26.3489 136.572 26.8966 136.404 27.4021C136.278 27.8234 135.396 28.329 135.522 28.7081C135.774 29.4243 134.64 29.7613 134.388 29.0451C134.262 28.6239 134.262 28.2868 134.43 27.9498Z" fill="#F2A29B"/>
<path d="M130.298 23.2188C130.507 22.9626 130.805 22.606 131.167 22.195C131.882 21.3842 132.857 20.3518 133.905 19.4593C133.908 19.4534 133.911 19.4471 133.914 19.4406C133.949 19.3718 134 19.2691 134.062 19.1366C134.187 18.8715 134.358 18.4879 134.541 18.0187C134.908 17.0771 135.317 15.8049 135.499 14.4595C135.681 13.1101 135.63 11.7273 135.12 10.5361C134.618 9.3647 133.653 8.33214 131.906 7.69218C130.225 7.08255 128.506 7.89012 127.39 9.70167C126.277 11.5086 125.832 14.2503 126.799 17.2199C127.535 19.4565 128.515 21.05 129.304 22.0795C129.698 22.5944 130.045 22.9685 130.29 23.2112C130.293 23.2137 130.295 23.2163 130.298 23.2188Z" fill="#D9D9D9" stroke="#CCCCCC"/>
<path d="M132 9C133.167 10.8333 134.8 15.2 132 18" stroke="#AFAFAF"/>
<path d="M123.174 24.7901C122.71 24.7901 122.334 23.9414 122.334 22.8943C122.334 21.8473 122.71 20.9985 123.174 20.9985C123.638 20.9985 124.014 21.8473 124.014 22.8943C124.014 23.9414 123.638 24.7901 123.174 24.7901Z" fill="#513329"/>
<path d="M110.322 24.2003C109.858 24.2003 109.482 23.3516 109.482 22.3045C109.482 21.2575 109.858 20.4088 110.322 20.4088C110.786 20.4088 111.162 21.2575 111.162 22.3045C111.162 23.3516 110.786 24.2003 110.322 24.2003Z" fill="#513329"/>
<path d="M117.504 22.9786L116.874 25.8013C116.874 25.8013 114.774 24.3689 113.808 25.8013C112.842 27.2336 112.884 30.7303 116.454 30.5618" stroke="#F2A29B" stroke-width="2" stroke-miterlimit="10" stroke-linecap="round" stroke-linejoin="round"/>
<path d="M125.736 19.1027C125.736 19.1027 122.67 18.4287 120.738 19.4398C120.738 19.3976 122.586 16.1537 125.736 19.1027Z" fill="#66463D"/>
<path d="M107.844 19.1027C107.844 19.1027 110.91 18.4287 112.842 19.4398C112.842 19.3976 110.952 16.1537 107.844 19.1027Z" fill="#66463D"/>
<path d="M131.238 7.89647C131.238 7.89647 128.802 2.50397 120.235 1.57714C110.323 0.523918 107.131 8.19137 107.131 8.19137" stroke="#CCCCCC" stroke-miterlimit="10"/>
<path d="M129.684 7.89646C129.684 7.89646 117 3.13594 107.172 8.65477" stroke="#CCCCCC" stroke-miterlimit="10"/>
<path d="M114.344 34.494L114.345 34.4938L114.345 34.4937L114.345 34.4936L114.345 34.4936L114.585 34.3767L114.815 34.511L114.816 34.5111L114.816 34.5111L114.816 34.5112L114.816 34.5113L114.818 34.5124L114.83 34.519C114.841 34.5253 114.858 34.5349 114.881 34.5473C114.927 34.5722 114.996 34.6081 115.082 34.6501C115.256 34.7345 115.497 34.8413 115.769 34.9328C116.346 35.1277 116.919 35.2042 117.3 35.0342C117.861 34.7842 118.162 34.6324 118.319 34.5467C118.382 34.5124 118.418 34.4902 118.437 34.4781L118.629 34.2865L118.922 34.3847L118.922 34.3847L118.922 34.3847L118.922 34.3848L118.924 34.3852L118.93 34.3872L118.957 34.3959C118.98 34.4036 119.016 34.4149 119.062 34.429C119.154 34.4573 119.287 34.4965 119.446 34.5396C119.764 34.6257 120.18 34.7248 120.591 34.7841C121.016 34.8292 121.368 34.6618 121.518 34.4604C121.587 34.3677 121.62 34.263 121.607 34.1394C121.594 34.0104 121.527 33.8218 121.325 33.5848C120.824 33.0111 120.033 32.5862 119.077 32.3115C118.128 32.0386 117.057 31.9265 116.048 31.9463C115.002 31.9866 113.947 32.265 113.175 32.7326C112.403 33.2 111.982 33.8057 111.998 34.5108C112.002 34.6813 112.038 34.7738 112.068 34.8226C112.096 34.8677 112.134 34.9024 112.198 34.9305C112.348 34.9974 112.609 35.0118 112.962 34.9508C113.298 34.8927 113.643 34.7798 113.912 34.6769C114.045 34.6262 114.155 34.5794 114.232 34.5456C114.27 34.5287 114.299 34.5152 114.319 34.5062L114.34 34.4962L114.344 34.494Z" fill="#D9D9D9" stroke="#CCCCCC"/>
<path d="M78.4868 97.5045C78.4868 97.5045 80.1248 134.325 76.6808 151.682L82.3927 152.104C85.2066 114.609 81.3847 88.2783 81.2167 87.183L76.0088 87.9834L70.801 88.7839C70.801 88.9103 71.1789 91.438 71.5989 95.9036L78.4868 97.5045Z" fill="url(#paint7_linear)"/>
<path d="M67.3148 61.9899C67.3148 61.9899 79.7044 69.0254 83.6523 90.5954C83.6523 90.5954 74.7486 96.2827 68.4067 92.7018C68.3647 92.7439 62.9889 71.9744 67.3148 61.9899Z" fill="#735BFF"/>
<path d="M73.3626 67.4244C75.6725 74.3336 78.3185 84.276 78.3605 93.0388C81.4264 92.0698 83.6523 90.6374 83.6523 90.6374C81.5524 79.1784 77.1005 71.8058 73.3626 67.4244Z" fill="url(#paint8_linear)"/>
<defs>
<linearGradient id="paint0_linear" x1="-3.95803" y1="87.7869" x2="37.8543" y2="100.983" gradientUnits="userSpaceOnUse">
<stop stop-color="#FCCBC6" stop-opacity="0"/>
<stop offset="0.443" stop-color="#F1BBAD" stop-opacity="0.4453"/>
<stop offset="0.9949" stop-color="#E0A488"/>
</linearGradient>
<linearGradient id="paint1_linear" x1="101.389" y1="81.1695" x2="69.3222" y2="50.7238" gradientUnits="userSpaceOnUse">
<stop stop-color="#511500" stop-opacity="0"/>
<stop offset="0.9949" stop-color="#511500"/>
</linearGradient>
<linearGradient id="paint2_linear" x1="48.6144" y1="151.676" x2="100.918" y2="72.4108" gradientUnits="userSpaceOnUse">
<stop stop-opacity="0"/>
<stop offset="0.9949" stop-opacity="0.5"/>
</linearGradient>
<linearGradient id="paint3_linear" x1="56.776" y1="70.5574" x2="52.9747" y2="58.0656" gradientUnits="userSpaceOnUse">
<stop stop-color="#735BFF" stop-opacity="0"/>
<stop offset="0.9949" stop-color="#735BFF"/>
</linearGradient>
<linearGradient id="paint4_linear" x1="119.745" y1="138.246" x2="188.022" y2="-31.226" gradientUnits="userSpaceOnUse">
<stop stop-opacity="0"/>
<stop offset="0.9949"/>
</linearGradient>
<linearGradient id="paint5_linear" x1="160.58" y1="91.2634" x2="125.197" y2="57.6694" gradientUnits="userSpaceOnUse">
<stop stop-opacity="0"/>
<stop offset="0.9949" stop-opacity="0.5"/>
</linearGradient>
<linearGradient id="paint6_linear" x1="101.243" y1="47.842" x2="102.511" y2="99.871" gradientUnits="userSpaceOnUse">
<stop stop-opacity="0"/>
<stop offset="0.9949" stop-color="#010101" stop-opacity="0.5"/>
</linearGradient>
<linearGradient id="paint7_linear" x1="80.9127" y1="136.737" x2="76.8984" y2="101.14" gradientUnits="userSpaceOnUse">
<stop stop-color="#FCCBC6" stop-opacity="0"/>
<stop offset="0.443" stop-color="#F1BBAD" stop-opacity="0.4453"/>
<stop offset="0.9949" stop-color="#E0A488"/>
</linearGradient>
<linearGradient id="paint8_linear" x1="72.9746" y1="87.4476" x2="84.3709" y2="70.1768" gradientUnits="userSpaceOnUse">
<stop stop-color="#735BFF" stop-opacity="0"/>
<stop offset="0.9949" stop-color="#735BFF"/>
</linearGradient>
</defs>
</svg>
