<svg xmlns="http://www.w3.org/2000/svg" width="126" height="84.146" viewBox="0 0 126 84.146"><g transform="translate(229 -977.104)"><text transform="translate(-229 1053)" fill="#fff" font-size="18" font-family="MalgunGothic, Malgun Gothic"><tspan x="0" y="0">근태관리시스템</tspan></text><path d="M20.947-14.395q0,1.182,1.772,1.128T24.492-14.5q0-3.115.054-6.392t.376-6.284A2.8,2.8,0,0,0,26.05-29q.161-1.074-1.021-1.4.107-1.4.269-3.33t.269-3.115q.107-1.289-1.48-1.128t-1.809,1.128a28.054,28.054,0,0,0-.443,3.169q-.111,1.45-.332,3.169a18.569,18.569,0,0,0-3.186.054,24.856,24.856,0,0,0-2.847.483q.215-1.611.376-3.169t.376-3.706q.215-1.289-1.5-1.182t-1.934,1.182a25.718,25.718,0,0,0-.591,3.76q-.161,1.934-.376,3.76-1.4.537-2.739,1.074A11.907,11.907,0,0,0,6.66-26.963q.215-2.363.752-5.156t.967-5.908q.215-1.074-1.558-1.128t-1.987.7Q3.652-32.549,3.169-27.983a59.5,59.5,0,0,0-.376,8,36.55,36.55,0,0,0,.645,5.962q.43,1.772,3.115,1.45l5.264-.645a1.187,1.187,0,0,0,.806.591,3.967,3.967,0,0,0,1.021.161,1.43,1.43,0,0,0,.967-.376,2.36,2.36,0,0,0,.537-.591q1.826-.215,3.438-.483A23.582,23.582,0,0,0,20.947-14.395ZM15.576-26.533q1.289-.322,2.793-.591a10.062,10.062,0,0,1,3.115-.054q-.107,2.363-.215,4.78t-.215,4.888a25.321,25.321,0,0,1-2.793.483q-1.4.161-2.9.376-.107-2.471,0-5T15.576-26.533ZM6.66-22.881a25.319,25.319,0,0,1,2.524-1.611,14.067,14.067,0,0,1,2.739-1.182q-.215,2.363-.215,4.619t.107,4.727a23.921,23.921,0,0,1-4.3.322.969.969,0,0,1-.967-1.074q-.107-2.041-.054-3.384T6.66-22.881Zm30.186-4.3q.322-3.115.752-6.23t.645-4.941q.215-1.289-1.45-1.343T34.8-38.457q-.322,1.4-.645,4.082t-.967,7.2a1.986,1.986,0,0,0-1.88,1.772q-.376,1.665,1.45,1.558-.537,6.23-.752,11.816T31.9-1.611q0,1.719,1.772,1.45t1.772-1.558q0-4.941.107-10.259t.752-11.87q1.5-.107,3.223-.107a27.688,27.688,0,0,1,3.438.215,5.226,5.226,0,0,0,2.9-.645q1.4-.752,1.4-1.182a.929.929,0,0,0-.43-.752,3.137,3.137,0,0,0-1.5-.43,43.226,43.226,0,0,0-8.486-.43ZM67.354-39.5a2.957,2.957,0,0,0-1.343-1.767,9.2,9.2,0,0,0-3.384-.951,36.893,36.893,0,0,0-3.706-.376q-1.45-.054-4.028-.054-1.182,0-1.343,1.431t1.558,1.527q1.934.094,3.545.142a28.74,28.74,0,0,1,3.008.238,2.057,2.057,0,0,1,1.4.581,1.243,1.243,0,0,1,.215,1.239,32.517,32.517,0,0,1-1.289,4.243,50.36,50.36,0,0,1-2.471,5.425q-.752,1.4,1.021,1.88t2.095-.161A51.323,51.323,0,0,0,65.366-31.8q1.128-2.793,1.88-4.727a12.329,12.329,0,0,1,3.545-1.558,12.239,12.239,0,0,1,2.686-.376,1.986,1.986,0,0,1,1.128.322q.483.322.269,1.4a49.148,49.148,0,0,1-1.182,4.78,43.989,43.989,0,0,1-1.5,4.136q-.43,1.289,1.235,1.987t2.095-.376a39.125,39.125,0,0,0,2.095-6.016q.7-2.793,1.128-4.727.537-2.452-.537-3.589a3.422,3.422,0,0,0-2.578-1.137,15.282,15.282,0,0,0-3.76.521A26.775,26.775,0,0,0,67.354-39.5Zm10.42,15.115a86.588,86.588,0,0,0-10.635.483q-5.8.591-12.676,1.772-2.256.43-1.074,2.578T55.43-17.4a5.265,5.265,0,0,0,2.632-.7A12.552,12.552,0,0,1,60.8-19.229a28.665,28.665,0,0,1,3.813-.752q2.31-.322,4.78-.537-.107,1.289-.537,3.6t-.752,4.565q-.215,1.611,1.611,1.665t2.041-1.343q.537-2.793.913-4.941t.591-3.867q1.074-.107,2.31-.161a9.72,9.72,0,0,1,1.88.054q.859.107.752.483t.322.376a2.242,2.242,0,0,0,1.558-.645,1.988,1.988,0,0,0,.7-1.5,1.906,1.906,0,0,0-.913-1.45A3.355,3.355,0,0,0,77.773-24.385ZM71.006-11.6a10.089,10.089,0,0,0-4.189,1.108,11.657,11.657,0,0,0-3.76,2.652v-2.753q0-1.329-1.772-1.118T59.4-10.192q-.107,3.209,0,6.647a37.608,37.608,0,0,0,.859,6.875q.215,1.289,1.987,1.343t1.558-1.665Q63.7,1.289,63.486-.376a17.738,17.738,0,0,1-.107-3.384q1.4-1.182,3.438-2.9A6.357,6.357,0,0,1,70.9-8.379q1.5,0,1.665.913a4.025,4.025,0,0,1-.376,2.2A37.642,37.642,0,0,0,69.5,1.987Q68.75,5.156,71.65,5.156a9,9,0,0,0,4.082-.913q1.826-.913,3.545-1.987,2.148-1.5,1.4-2.793a1.3,1.3,0,0,0-1.934-.645q-1.074.645-2.578,1.4A25.941,25.941,0,0,1,73.477,1.4a9.87,9.87,0,0,1,1.611-4.028,7.565,7.565,0,0,0,1.4-3.921A5.305,5.305,0,0,0,75.3-10.443Q74.121-11.6,71.006-11.6Zm35.557-15.846a3.7,3.7,0,0,1-1.826,3.291,7.233,7.233,0,0,1-3.975,1.168,6.611,6.611,0,0,1-3.813-1.062,3.6,3.6,0,0,1-1.558-3.187,4.36,4.36,0,0,1,1.772-3.61,6.537,6.537,0,0,1,4.136-1.381,1.394,1.394,0,0,0,.107,1.168q.322.744,1.182.425a2.823,2.823,0,0,1,2.632.266A3.107,3.107,0,0,1,106.563-27.448Zm-5.48-8A9.111,9.111,0,0,0,94.5-32.889a7.729,7.729,0,0,0-2.654,5.654,7.183,7.183,0,0,0,2.23,5.228q2.23,2.241,6.688,2.241A10.96,10.96,0,0,0,107.4-21.74a6.739,6.739,0,0,0,2.707-5.814,7.308,7.308,0,0,0-1.751-4.855q-1.751-2.08-6.211-1.441a.739.739,0,0,0,.053-1.013A1.233,1.233,0,0,0,101.082-35.449Zm21.593-3.33q-1.719,10.42-2.417,18.691T119.238-1.826a3.911,3.911,0,0,0,.43,2.417,1.541,1.541,0,0,0,1.289.806,3.23,3.23,0,0,0,1.558-.537q.913-.537.913-.967,0-.322-.376-.376a.421.421,0,0,1-.376-.483q.322-11.279,1.4-20.464t2.471-17.134q.215-1.611-1.719-1.665T122.676-38.779Z" transform="translate(-231 1020)" fill="#fff" stroke="#fff" stroke-width="0.5"/><line x2="123" transform="translate(-227.5 1031.5)" fill="none" stroke="#fff" stroke-width="1.5"/><line x2="123" transform="translate(-227.5 1060.5)" fill="none" stroke="#fff" stroke-width="1.5"/></g></svg>